# xmcd CD database file
#
# Track frame offsets:
#	150
#	19092
#	40237
#	58930
#	81672
#	105302
#	132107
#	150702
#	170037
#	192740
#	221295
#	243325
#	266815
#	288775
#	308100
#
# Disc length: 4374 seconds
#
# Revision: 9
# Processed by: cddbd v1.5PL3 Copyright (c) Steve Scherf et al.
# Submitted via: CDex 1.40Release
#
DISCID=d811140f
DTITLE=中山美穂 - TREASURY
DYEAR=1997
DGENRE=JPop
TTITLE0=CATCH ME
TTITLE1=You're My Only Shinin' Star
TTITLE2=人魚姫 mermaid
TTITLE3=Rose Color
TTITLE4=Rosa
TTITLE5=遠い街のどこかで…
TTITLE6=世界中の誰よりきっと
TTITLE7=幸せになるために
TTITLE8=ただ泣きたくなるの
TTITLE9=Sea Paradise -OLの反乱-
TTITLE10=HERO
TTITLE11=Hurt to Heart 〜痛みの行方〜
TTITLE12=Thinking About You -あなたの夜を包みたい-
TTITLE13=True Romance
TTITLE14=未来へのプレゼント
EXTD=YEAR: 1997
EXTT0=
EXTT1=
EXTT2=
EXTT3=
EXTT4=
EXTT5=
EXTT6=
EXTT7=
EXTT8=
EXTT9=
EXTT10=
EXTT11=
EXTT12=
EXTT13=
EXTT14=
PLAYORDER=
